<?xml version="1.0" encoding="UTF-8"?>
<svg width="154px" height="154px" viewBox="0 0 154 154" version="1.1" xmlns="http://www.w3.org/2000/svg" xmlns:xlink="http://www.w3.org/1999/xlink">
    <!-- Generator: Sketch 45.1 (43504) - http://www.bohemiancoding.com/sketch -->
    <title>Untitled</title>
    <desc>Created with Sketch.</desc>
    <defs></defs>
    <g id="Page-1" stroke="none" stroke-width="1" fill="none" fill-rule="evenodd">
        <path d="M77,33.6891098 C69.6456658,29.4348571 61.1071786,27 52,27 C24.3857625,27 2,49.3857625 2,77 C2,104.614237 24.3857625,127 52,127 C61.1071786,127 69.6456658,124.565143 77,120.31089 C62.0549657,111.665655 52,95.5070589 52,77 C52,58.4929411 62.0549657,42.3343453 77,33.6891098 Z" id="Left" stroke="#000000" stroke-width="4" fill-opacity="0" fill="#FFFFFF"></path>
        <path d="M77,120.31089 C84.3543342,124.565143 92.8928214,127 102,127 C129.614237,127 152,104.614237 152,77 C152,49.3857625 129.614237,27 102,27 C92.8928214,27 84.3543342,29.4348571 77,33.6891098 C91.9450343,42.3343453 102,58.4929411 102,77 C102,95.5070589 91.9450343,111.665655 77,120.31089 Z" id="Right" stroke="#000000" stroke-width="4" fill-opacity="0" fill="#FFFFFF"></path>
        <path d="M77,34 C91.9450343,42.6452355 102,58.8038313 102,77.3108902 C102,95.8179491 91.9450343,111.976545 77,120.62178 C62.0549657,111.976545 52,95.8179491 52,77.3108902 C52,58.8038313 62.0549657,42.6452355 77,34 Z" id="AND" stroke="#000000" stroke-width="4" fill="#000000"></path>
    </g>
</svg>